<mxfile host="app.diagrams.net" modified="2023-10-16T13:57:28.714Z" agent="Mozilla/5.0 (Macintosh; Intel Mac OS X 10_15_7) AppleWebKit/537.36 (KHTML, like Gecko) Chrome/118.0.0.0 Safari/537.36" etag="5cU0pJnsTIdip-66n_Ay" version="21.7.0" type="github">
  <diagram name="Page-1" id="eGs4x6oEq6iZnOcz6iTD">
    <mxGraphModel dx="1306" dy="722" grid="1" gridSize="10" guides="1" tooltips="1" connect="1" arrows="1" fold="1" page="1" pageScale="1" pageWidth="1400" pageHeight="850" math="0" shadow="0">
      <root>
        <mxCell id="0" />
        <mxCell id="1" parent="0" />
        <mxCell id="c2l4Xwa00zl8-_zyRCt3-1" value="&lt;b&gt;Android&lt;/b&gt;" style="rounded=1;whiteSpace=wrap;html=1;" vertex="1" parent="1">
          <mxGeometry x="230" y="210" width="120" height="30" as="geometry" />
        </mxCell>
        <mxCell id="c2l4Xwa00zl8-_zyRCt3-2" value="&lt;b&gt;iOS&lt;/b&gt;" style="rounded=1;whiteSpace=wrap;html=1;" vertex="1" parent="1">
          <mxGeometry x="230" y="260" width="120" height="30" as="geometry" />
        </mxCell>
        <mxCell id="c2l4Xwa00zl8-_zyRCt3-3" value="&lt;b&gt;Linux&lt;/b&gt;" style="rounded=1;whiteSpace=wrap;html=1;" vertex="1" parent="1">
          <mxGeometry x="230" y="310" width="120" height="30" as="geometry" />
        </mxCell>
        <mxCell id="c2l4Xwa00zl8-_zyRCt3-4" value="&lt;b&gt;Windows&lt;/b&gt;" style="rounded=1;whiteSpace=wrap;html=1;" vertex="1" parent="1">
          <mxGeometry x="230" y="360" width="120" height="30" as="geometry" />
        </mxCell>
        <mxCell id="c2l4Xwa00zl8-_zyRCt3-5" value="&lt;b&gt;Gaming Consoles&lt;/b&gt;" style="rounded=1;whiteSpace=wrap;html=1;" vertex="1" parent="1">
          <mxGeometry x="230" y="410" width="120" height="30" as="geometry" />
        </mxCell>
        <mxCell id="c2l4Xwa00zl8-_zyRCt3-6" value="&lt;div style=&quot;text-align: left;&quot;&gt;&lt;h4&gt;&lt;ul&gt;&lt;li&gt;&lt;span style=&quot;background-color: initial;&quot;&gt;&lt;font style=&quot;font-size: 14px;&quot;&gt;High Maintenance&lt;/font&gt;&lt;/span&gt;&lt;/li&gt;&lt;/ul&gt;&lt;ul&gt;&lt;li&gt;&lt;span style=&quot;background-color: initial;&quot;&gt;&lt;font size=&quot;3&quot;&gt;Costly Bug Fixes&lt;/font&gt;&lt;/span&gt;&lt;/li&gt;&lt;/ul&gt;&lt;ul&gt;&lt;li&gt;&lt;span style=&quot;background-color: initial;&quot;&gt;&lt;font size=&quot;3&quot;&gt;No Code Reusability across platform&lt;/font&gt;&lt;/span&gt;&lt;/li&gt;&lt;/ul&gt;&lt;ul&gt;&lt;li&gt;&lt;span style=&quot;background-color: initial;&quot;&gt;&lt;font size=&quot;3&quot;&gt;High Development Time&lt;/font&gt;&lt;/span&gt;&lt;/li&gt;&lt;/ul&gt;&lt;ul&gt;&lt;li&gt;&lt;span style=&quot;background-color: initial;&quot;&gt;&lt;font size=&quot;3&quot;&gt;Diverse Resource Set&lt;/font&gt;&lt;/span&gt;&lt;/li&gt;&lt;/ul&gt;&lt;/h4&gt;&lt;/div&gt;" style="whiteSpace=wrap;html=1;aspect=fixed;" vertex="1" parent="1">
          <mxGeometry x="430" y="210" width="230" height="230" as="geometry" />
        </mxCell>
        <mxCell id="c2l4Xwa00zl8-_zyRCt3-7" value="" style="endArrow=classic;html=1;rounded=0;exitX=1;exitY=0.5;exitDx=0;exitDy=0;entryX=0;entryY=0.5;entryDx=0;entryDy=0;" edge="1" parent="1" source="c2l4Xwa00zl8-_zyRCt3-1" target="c2l4Xwa00zl8-_zyRCt3-6">
          <mxGeometry width="50" height="50" relative="1" as="geometry">
            <mxPoint x="640" y="380" as="sourcePoint" />
            <mxPoint x="690" y="330" as="targetPoint" />
            <Array as="points">
              <mxPoint x="400" y="225" />
              <mxPoint x="400" y="325" />
            </Array>
          </mxGeometry>
        </mxCell>
        <mxCell id="c2l4Xwa00zl8-_zyRCt3-8" value="" style="endArrow=classic;html=1;rounded=0;exitX=1;exitY=0.5;exitDx=0;exitDy=0;entryX=0;entryY=0.5;entryDx=0;entryDy=0;" edge="1" parent="1" source="c2l4Xwa00zl8-_zyRCt3-2" target="c2l4Xwa00zl8-_zyRCt3-6">
          <mxGeometry width="50" height="50" relative="1" as="geometry">
            <mxPoint x="640" y="380" as="sourcePoint" />
            <mxPoint x="690" y="330" as="targetPoint" />
            <Array as="points">
              <mxPoint x="400" y="275" />
              <mxPoint x="400" y="325" />
            </Array>
          </mxGeometry>
        </mxCell>
        <mxCell id="c2l4Xwa00zl8-_zyRCt3-9" value="" style="endArrow=classic;html=1;rounded=0;exitX=1;exitY=0.5;exitDx=0;exitDy=0;entryX=0;entryY=0.5;entryDx=0;entryDy=0;" edge="1" parent="1" source="c2l4Xwa00zl8-_zyRCt3-3" target="c2l4Xwa00zl8-_zyRCt3-6">
          <mxGeometry width="50" height="50" relative="1" as="geometry">
            <mxPoint x="640" y="380" as="sourcePoint" />
            <mxPoint x="690" y="330" as="targetPoint" />
          </mxGeometry>
        </mxCell>
        <mxCell id="c2l4Xwa00zl8-_zyRCt3-10" value="" style="endArrow=classic;html=1;rounded=0;exitX=1;exitY=0.5;exitDx=0;exitDy=0;entryX=0;entryY=0.5;entryDx=0;entryDy=0;" edge="1" parent="1" source="c2l4Xwa00zl8-_zyRCt3-4" target="c2l4Xwa00zl8-_zyRCt3-6">
          <mxGeometry width="50" height="50" relative="1" as="geometry">
            <mxPoint x="640" y="380" as="sourcePoint" />
            <mxPoint x="690" y="330" as="targetPoint" />
            <Array as="points">
              <mxPoint x="400" y="375" />
              <mxPoint x="400" y="325" />
            </Array>
          </mxGeometry>
        </mxCell>
        <mxCell id="c2l4Xwa00zl8-_zyRCt3-11" value="" style="endArrow=classic;html=1;rounded=0;exitX=1;exitY=0.5;exitDx=0;exitDy=0;entryX=0;entryY=0.5;entryDx=0;entryDy=0;" edge="1" parent="1" source="c2l4Xwa00zl8-_zyRCt3-5" target="c2l4Xwa00zl8-_zyRCt3-6">
          <mxGeometry width="50" height="50" relative="1" as="geometry">
            <mxPoint x="640" y="380" as="sourcePoint" />
            <mxPoint x="690" y="330" as="targetPoint" />
            <Array as="points">
              <mxPoint x="400" y="425" />
              <mxPoint x="400" y="325" />
            </Array>
          </mxGeometry>
        </mxCell>
        <mxCell id="c2l4Xwa00zl8-_zyRCt3-12" value="&lt;b&gt;Web App&lt;/b&gt;" style="rounded=1;whiteSpace=wrap;html=1;" vertex="1" parent="1">
          <mxGeometry x="1030" y="310" width="120" height="30" as="geometry" />
        </mxCell>
        <mxCell id="c2l4Xwa00zl8-_zyRCt3-13" value="&lt;div style=&quot;text-align: left;&quot;&gt;&lt;h4&gt;&lt;/h4&gt;&lt;h4&gt;&lt;ul&gt;&lt;li&gt;&lt;span style=&quot;font-size: 14px;&quot;&gt;Cost Effective&amp;nbsp;Development&lt;/span&gt;&lt;/li&gt;&lt;/ul&gt;&lt;ul&gt;&lt;li&gt;&lt;span style=&quot;font-size: 14px;&quot;&gt;Rapid Development&lt;/span&gt;&lt;/li&gt;&lt;/ul&gt;&lt;ul&gt;&lt;li&gt;&lt;span style=&quot;font-size: 14px;&quot;&gt;No Installation Required&lt;/span&gt;&lt;/li&gt;&lt;/ul&gt;&lt;ul&gt;&lt;li&gt;&lt;span style=&quot;font-size: 14px;&quot;&gt;Cross Platform Compatibility&lt;/span&gt;&lt;/li&gt;&lt;/ul&gt;&lt;div&gt;&lt;span style=&quot;font-size: 14px;&quot;&gt;&lt;u&gt;Limitation:&lt;/u&gt;&lt;/span&gt;&lt;/div&gt;&lt;div&gt;The player possesses fewer capabilities compared to native players.â€‹&lt;br&gt;&lt;/div&gt;&lt;/h4&gt;&lt;/div&gt;" style="whiteSpace=wrap;html=1;aspect=fixed;" vertex="1" parent="1">
          <mxGeometry x="720" y="210" width="230" height="230" as="geometry" />
        </mxCell>
        <mxCell id="c2l4Xwa00zl8-_zyRCt3-14" value="" style="endArrow=classic;html=1;rounded=0;entryX=1;entryY=0.5;entryDx=0;entryDy=0;exitX=0;exitY=0.5;exitDx=0;exitDy=0;" edge="1" parent="1" source="c2l4Xwa00zl8-_zyRCt3-12" target="c2l4Xwa00zl8-_zyRCt3-13">
          <mxGeometry width="50" height="50" relative="1" as="geometry">
            <mxPoint x="640" y="310" as="sourcePoint" />
            <mxPoint x="690" y="260" as="targetPoint" />
          </mxGeometry>
        </mxCell>
        <mxCell id="c2l4Xwa00zl8-_zyRCt3-16" value="" style="rounded=1;whiteSpace=wrap;html=1;fillColor=none;" vertex="1" parent="1">
          <mxGeometry x="200" y="180" width="970" height="290" as="geometry" />
        </mxCell>
      </root>
    </mxGraphModel>
  </diagram>
</mxfile>
